<?xml version="1.0" encoding="utf-8"?>
<!-- Generator: Adobe Illustrator 23.0.0, SVG Export Plug-In . SVG Version: 6.00 Build 0)  -->
<svg version="1.1" id="图层_1" xmlns="http://www.w3.org/2000/svg" xmlns:xlink="http://www.w3.org/1999/xlink" x="0px" y="0px"
	 viewBox="0 0 400 400" style="enable-background:new 0 0 400 400;" xml:space="preserve">
<style type="text/css">
	ellipse {
		fill:#27AFD4;
		animation-name: animate;
		animation-duration: 1.2s;
		animation-timing-function: linear;
		animation-iteration-count: infinite;
		animation-direction: reverse;
	}
	#step1 {
		animation-delay: 0.0s;
	}
	#step2 {
		animation-delay: 0.1s;
	}
	#step3 {
		animation-delay: 0.2s;
	}	
	#step4 {
		animation-delay: 0.3s;
	}	
	#step5 {
		animation-delay: 0.4s;
	}	
	#step6 {
		animation-delay: 0.5s;
	}	
	#step7 {
		animation-delay: 0.6s;
	}	
	#step8 {
		animation-delay: 0.7s;
	}	
	#step9 {
		animation-delay: 0.8s;
	}	
	#step10 {
		animation-delay: 0.9s;
	}	
	#step11 {
		animation-delay: 1.0s;
	}	
	#step12 {
		animation-delay: 1.1s;
	}
	@keyframes animate {
		0% {
			fill: #E6E6E5;
		},
		100% {
			fill: #27AFD4;
		}
	}
</style>
<ellipse id="step1" transform="matrix(0.5 -0.866 0.866 0.5 60.3855 270.7426)" cx="264.7" cy="83.1" rx="63.4" ry="17.2"/>
<ellipse id="step2" transform="matrix(0.866 -0.5 0.5 0.866 -23.4062 174.7911)" cx="314.5" cy="131.1" rx="63.4" ry="17.2"/>
<ellipse id="step3" cx="333.6" cy="197.5" rx="63.4" ry="17.2"/>
<ellipse id="step4" transform="matrix(0.5 -0.866 0.866 0.5 -70.7426 406.7957)" cx="316.9" cy="264.7" rx="17.2" ry="63.4"/>
<ellipse id="step5" transform="matrix(0.866 -0.5 0.5 0.866 -121.2013 176.5938)" cx="268.9" cy="314.5" rx="17.2" ry="63.4"/>
<ellipse id="step6" cx="202.5" cy="333.6" rx="17.2" ry="63.4"/>
<ellipse id="step7" transform="matrix(0.5 -0.866 0.866 0.5 -206.7957 275.6676)" cx="135.3" cy="316.9" rx="63.4" ry="17.2"/>
<ellipse id="step8" transform="matrix(0.866 -0.5 0.5 0.866 -123.004 78.7987)" cx="85.5" cy="268.9" rx="63.4" ry="17.2"/>
<ellipse id="step9" cx="66.4" cy="202.5" rx="63.4" ry="17.2"/>
<ellipse id="step10" transform="matrix(0.5 -0.866 0.866 0.5 -75.6676 139.6145)" cx="83.1" cy="135.3" rx="17.2" ry="63.4"/>
<ellipse id="step11" transform="matrix(0.866 -0.5 0.5 0.866 -25.2089 76.996)" cx="131.1" cy="85.5" rx="17.2" ry="63.4"/>
<ellipse id="step12" cx="197.5" cy="66.4" rx="17.2" ry="63.4"/>
</svg>
