<svg xmlns="http://www.w3.org/2000/svg">
    <symbol viewBox="0 0 30 30" fill="none" id="icons-add">        
        <path fill-rule="evenodd" d="M7.646 5.146a.5.5 0 0 1 .708 0l2 2a.5.5 0 0 1-.708.708L8.5 6.707V10.5a.5.5 0 0 1-1 0V6.707L6.354 7.854a.5.5 0 1 1-.708-.708l2-2z"/>
        <path d="M4.406 3.342A5.53 5.53 0 0 1 8 2c2.69 0 4.923 2 5.166 4.579C14.758 6.804 16 8.137 16 9.773 16 11.569 14.502 13 12.687 13H3.781C1.708 13 0 11.366 0 9.318c0-1.763 1.266-3.223 2.942-3.593.143-.863.698-1.723 1.464-2.383zm.653.757c-.757.653-1.153 1.44-1.153 2.056v.448l-.445.049C2.064 6.805 1 7.952 1 9.318 1 10.785 2.23 12 3.781 12h8.906C13.98 12 15 10.988 15 9.773c0-1.216-1.02-2.228-2.313-2.228h-.5v-.5C12.188 4.825 10.328 3 8 3a4.53 4.53 0 0 0-2.941 1.1z"/>
    </symbol>                   
    <symbol viewBox="0 0 30 30" fill="none" id="icons-add2">        
        <path d="M22.78 27.14H18.55C18.347 27.144 18.1453 27.1073 17.9567 27.0321C17.7682 26.9569 17.5966 26.8446 17.4521 26.702C17.3077 26.5594 17.1932 26.3893 17.1156 26.2018C17.0379 26.0142 16.9986 25.813 17 25.61V18.68H12.8V25.57C12.799 25.9754 12.6371 26.3638 12.35 26.65C12.2093 26.7935 12.0412 26.9073 11.8557 26.9846C11.6701 27.0619 11.471 27.1011 11.27 27.1H7.14997C6.94899 27.1011 6.74982 27.0619 6.56429 26.9846C6.37876 26.9073 6.21066 26.7935 6.06997 26.65C5.78281 26.3638 5.62096 25.9754 5.61997 25.57V15.31H4.61997C4.31924 15.3321 4.01955 15.2551 3.76672 15.0907C3.5139 14.9264 3.32186 14.6838 3.21997 14.4C3.10347 14.1209 3.07169 13.8138 3.12859 13.5168C3.1855 13.2198 3.32857 12.9462 3.53997 12.73L14 3.28998C14.2842 3.01087 14.6666 2.85449 15.065 2.85449C15.4633 2.85449 15.8457 3.01087 16.13 3.28998L26.4 12.69C26.6138 12.9045 26.7591 13.1777 26.8175 13.475C26.8759 13.7722 26.8448 14.0801 26.7281 14.3596C26.6113 14.6391 26.4143 14.8777 26.1618 15.0451C25.9093 15.2125 25.6129 15.3012 25.31 15.3H24.26V25.66C24.2499 26.0493 24.0907 26.4199 23.8153 26.6953C23.5399 26.9707 23.1693 27.1299 22.78 27.14ZM12.15 16.77H17.25C17.7676 16.7644 18.2766 16.9029 18.72 17.17C18.8527 17.2996 18.9568 17.4555 19.0257 17.6277C19.0946 17.7999 19.1267 17.9846 19.12 18.17V24.78H22V14.22H24.3L15.08 5.76998L5.81997 14.16H8.08997V24.74H10.91V18.18C10.8958 17.8306 11.0167 17.4892 11.2476 17.2266C11.4785 16.9641 11.8017 16.8005 12.15 16.77Z" fill="#22A3DD"/>
    </symbol>                   
</svg>